<svg width="24" height="24" viewBox="0 0 24 24" fill="none" xmlns="http://www.w3.org/2000/svg">
<path d="M11.91 14H19.753C20.3497 14 20.922 14.2371 21.344 14.659C21.7659 15.081 22.003 15.6533 22.003 16.25V17.155C22.003 17.6954 21.8862 18.2294 21.6606 18.7205C21.435 19.2115 21.106 19.648 20.696 20C19.13 21.344 16.89 22 14 22H13.821C13.9716 21.6963 14.0309 21.3555 13.9917 21.0188C13.9525 20.6821 13.8164 20.364 13.6 20.103L13.489 19.983L11.259 17.759C11.9189 16.624 12.1496 15.2898 11.909 13.999L11.91 14ZM6.5 10.5C7.35468 10.5002 8.19163 10.7438 8.91293 11.2023C9.63423 11.6608 10.21 12.3152 10.573 13.0889C10.936 13.8627 11.0711 14.7239 10.9625 15.5716C10.854 16.4194 10.5062 17.2187 9.96 17.876L12.783 20.69C12.9179 20.8235 12.9972 21.0032 13.0048 21.1928C13.0125 21.3824 12.948 21.5679 12.8244 21.7118C12.7007 21.8558 12.5271 21.9475 12.3385 21.9685C12.1499 21.9895 11.9603 21.9382 11.808 21.825L11.723 21.752L8.82 18.856C8.22562 19.2136 7.55661 19.4289 6.86525 19.4852C6.17388 19.5415 5.47887 19.4371 4.83449 19.1804C4.19011 18.9236 3.61381 18.5213 3.15061 18.005C2.6874 17.4887 2.34983 16.8723 2.16427 16.2039C1.9787 15.5355 1.95015 14.8333 2.08086 14.1521C2.21157 13.4708 2.49799 12.8291 2.91776 12.2768C3.33752 11.7246 3.87927 11.2769 4.50068 10.9687C5.12209 10.6605 5.80635 10.5001 6.5 10.5V10.5ZM6.5 12C5.70435 12 4.94129 12.3161 4.37868 12.8787C3.81607 13.4413 3.5 14.2044 3.5 15C3.5 15.7957 3.81607 16.5587 4.37868 17.1213C4.94129 17.684 5.70435 18 6.5 18C7.29565 18 8.05871 17.684 8.62132 17.1213C9.18393 16.5587 9.5 15.7957 9.5 15C9.5 14.2044 9.18393 13.4413 8.62132 12.8787C8.05871 12.3161 7.29565 12 6.5 12ZM14 2.00403C15.3261 2.00403 16.5979 2.53081 17.5355 3.46849C18.4732 4.40618 19 5.67795 19 7.00403C19 8.33011 18.4732 9.60188 17.5355 10.5396C16.5979 11.4772 15.3261 12.004 14 12.004C12.6739 12.004 11.4021 11.4772 10.4645 10.5396C9.52678 9.60188 9 8.33011 9 7.00403C9 5.67795 9.52678 4.40618 10.4645 3.46849C11.4021 2.53081 12.6739 2.00403 14 2.00403V2.00403Z" fill="#9EADBA"/>
</svg>
